<?xml version="1.0" encoding="UTF-8" standalone="no"?> <svg width="64" height="64" viewBox="0 0 64 64" fill="none" xmlns="http://www.w3.org/2000/svg">
<path d="M27.71 2.5H8C6.54212 2.50264 5.14471 3.08295 4.11383 4.11383C3.08295 5.14471 2.50264 6.54212 2.5 8V27.71C2.5 28.1078 2.65804 28.4894 2.93934 28.7707C3.22064 29.052 3.60218 29.21 4 29.21H23.71C25.1687 29.21 26.5676 28.6305 27.5991 27.5991C28.6305 26.5676 29.21 25.1687 29.21 23.71V4C29.21 3.60218 29.052 3.22064 28.7707 2.93934C28.4894 2.65804 28.1078 2.5 27.71 2.5ZM26.21 23.71C26.21 24.0383 26.1453 24.3634 26.0197 24.6667C25.8941 24.97 25.7099 25.2456 25.4778 25.4778C25.2456 25.7099 24.97 25.8941 24.6667 26.0197C24.3634 26.1453 24.0383 26.21 23.71 26.21H5.5V8C5.5 7.33696 5.76339 6.70107 6.23223 6.23223C6.70107 5.76339 7.33696 5.5 8 5.5H26.21V23.71Z" fill="black"/>
<path d="M23.71 34.79H4C3.60218 34.79 3.22064 34.9481 2.93934 35.2294C2.65804 35.5107 2.5 35.8922 2.5 36.29V56C2.50264 57.4579 3.08295 58.8553 4.11383 59.8862C5.14471 60.9171 6.54212 61.4974 8 61.5H27.71C28.1078 61.5 28.4894 61.342 28.7707 61.0607C29.052 60.7794 29.21 60.3979 29.21 60V40.29C29.21 38.8313 28.6305 37.4324 27.5991 36.401C26.5676 35.3695 25.1687 34.79 23.71 34.79V34.79ZM26.21 58.5H8C7.33696 58.5 6.70107 58.2366 6.23223 57.7678C5.76339 57.299 5.5 56.6631 5.5 56V37.79H23.71C24.0383 37.79 24.3634 37.8547 24.6667 37.9803C24.97 38.106 25.2456 38.2901 25.4778 38.5223C25.7099 38.7544 25.8941 39.03 26.0197 39.3333C26.1453 39.6366 26.21 39.9617 26.21 40.29V58.5Z" fill="black"/>
<path d="M60 34.79H40.29C38.8313 34.79 37.4324 35.3695 36.401 36.401C35.3695 37.4324 34.79 38.8313 34.79 40.29V60C34.79 60.3979 34.9481 60.7794 35.2294 61.0607C35.5107 61.342 35.8922 61.5 36.29 61.5H56C57.4579 61.4974 58.8553 60.9171 59.8862 59.8862C60.9171 58.8553 61.4974 57.4579 61.5 56V36.29C61.5 35.8922 61.342 35.5107 61.0607 35.2294C60.7794 34.9481 60.3979 34.79 60 34.79ZM58.5 56C58.5 56.6631 58.2366 57.299 57.7678 57.7678C57.299 58.2366 56.6631 58.5 56 58.5H37.79V40.29C37.79 39.627 38.0534 38.9911 38.5223 38.5223C38.9911 38.0534 39.627 37.79 40.29 37.79H58.5V56Z" fill="black"/>
<path d="M40.29 21.3601H56C57.4587 21.3601 58.8577 20.7806 59.8891 19.7492C60.9206 18.7177 61.5 17.3188 61.5 15.8601C61.5 14.4014 60.9206 13.0025 59.8891 11.971C58.8577 10.9396 57.4587 10.3601 56 10.3601H40.29C38.8313 10.3601 37.4324 10.9396 36.401 11.971C35.3695 13.0025 34.79 14.4014 34.79 15.8601C34.79 17.3188 35.3695 18.7177 36.401 19.7492C37.4324 20.7806 38.8313 21.3601 40.29 21.3601V21.3601ZM40.29 13.3601H56C56.6631 13.3601 57.299 13.6235 57.7678 14.0923C58.2366 14.5612 58.5 15.1971 58.5 15.8601C58.5 16.5231 58.2366 17.159 57.7678 17.6279C57.299 18.0967 56.6631 18.3601 56 18.3601H40.29C39.627 18.3601 38.9911 18.0967 38.5223 17.6279C38.0534 17.159 37.79 16.5231 37.79 15.8601C37.79 15.1971 38.0534 14.5612 38.5223 14.0923C38.9911 13.6235 39.627 13.3601 40.29 13.3601V13.3601Z" fill="black"/>
</svg>
