<?xml version="1.0" encoding="iso-8859-1"?>
<!-- Generator: Adobe Illustrator 19.0.0, SVG Export Plug-In . SVG Version: 6.00 Build 0)  -->
<svg version="1.1" id="Layer_1" xmlns="http://www.w3.org/2000/svg" xmlns:xlink="http://www.w3.org/1999/xlink" x="0px" y="0px"
	 viewBox="0 0 512 512" style="enable-background:new 0 0 512 512;" xml:space="preserve">
<circle style="fill:#324A5E;" cx="256" cy="256" r="256"/>
<path style="fill:#2B3B4E;" d="M509.6,291.059L342.323,123.782L236.347,370.81l-49.304,63.959l77.09,77.09
	C389.946,507.93,492.865,413.231,509.6,291.059z"/>
<polygon style="fill:#F4E3C3;" points="324.956,434.769 256,401.153 187.044,434.769 187.044,300.304 324.956,300.304 "/>
<polygon style="fill:#FED8B2;" points="255.426,300.304 255.426,401.432 256,401.153 324.956,434.769 324.956,300.304 "/>
<circle style="fill:#FC6F58;" cx="256" cy="216.523" r="126.707"/>
<path style="fill:#F1543F;" d="M256,89.815c-0.193,0-0.381,0.014-0.574,0.014v253.385c0.191,0,0.381,0.016,0.574,0.016
	c69.979,0,126.707-56.729,126.707-126.707S325.977,89.815,256,89.815z"/>
<circle style="fill:#C1321F;" cx="256" cy="216.523" r="84.471"/>
<path style="fill:#A82116;" d="M256,132.051c-0.193,0-0.381,0.014-0.574,0.014v168.913c0.191,0.002,0.381,0.016,0.574,0.016
	c46.652,0,84.471-37.819,84.471-84.471S302.651,132.051,256,132.051z"/>
<path style="fill:#E6F3FF;" d="M222.384,256.431c-2.426,0-4.853-0.926-6.704-2.777c-3.703-3.701-3.703-9.706,0-13.407l67.232-67.232
	c3.699-3.703,9.707-3.703,13.407,0c3.703,3.701,3.703,9.706,0,13.407l-67.232,67.232
	C227.237,255.505,224.809,256.431,222.384,256.431z"/>
<path style="fill:#CFDBE6;" d="M296.32,173.013c-3.699-3.703-9.707-3.703-13.407,0l-27.486,27.486v26.815l40.894-40.895
	C300.023,182.718,300.023,176.716,296.32,173.013z"/>
<path style="fill:#E6F3FF;" d="M227.55,192.215c-3.172,0-6.277-1.293-8.533-3.534c-2.241-2.243-3.534-5.361-3.534-8.533
	s1.293-6.292,3.534-8.533c2.258-2.241,5.361-3.534,8.533-3.534c3.189,0,6.291,1.293,8.533,3.534
	c2.258,2.241,3.534,5.361,3.534,8.533s-1.276,6.291-3.534,8.533C233.841,190.923,230.722,192.215,227.55,192.215z"/>
<path style="fill:#CFDBE6;" d="M284.439,257.724c-3.172,0-6.277-1.293-8.533-3.534c-2.241-2.243-3.534-5.361-3.534-8.533
	s1.293-6.292,3.534-8.533c2.241-2.241,5.361-3.534,8.533-3.534c3.189,0,6.291,1.293,8.533,3.534
	c2.258,2.241,3.534,5.361,3.534,8.533s-1.276,6.291-3.534,8.533C290.73,256.431,287.611,257.724,284.439,257.724z"/>
<g>
</g>
<g>
</g>
<g>
</g>
<g>
</g>
<g>
</g>
<g>
</g>
<g>
</g>
<g>
</g>
<g>
</g>
<g>
</g>
<g>
</g>
<g>
</g>
<g>
</g>
<g>
</g>
<g>
</g>
</svg>
