<?xml version="1.0" encoding="iso-8859-1"?>
<!-- Generator: Adobe Illustrator 19.0.0, SVG Export Plug-In . SVG Version: 6.00 Build 0)  -->
<svg version="1.1" id="Layer_1" xmlns="http://www.w3.org/2000/svg" xmlns:xlink="http://www.w3.org/1999/xlink" x="0px" y="0px"
	 viewBox="0 0 512 512" style="enable-background:new 0 0 512 512;" xml:space="preserve">
<g>
	<path style="fill:#2F5E88;" d="M139.048,486.68h-16.879v-85.9c0-1.382,0.339-2.741,0.987-3.961l34.898-65.659v-40.287h16.879v42.39
		c0,1.382-0.339,2.741-0.987,3.961l-34.898,65.659C139.048,402.883,139.048,486.68,139.048,486.68z"/>
	<path style="fill:#2F5E88;" d="M300.326,486.68h-16.879v-83.797l-34.899-65.659c-0.647-1.22-0.987-2.579-0.987-3.961v-42.39h16.879
		v40.287l34.899,65.659c0.647,1.22,0.987,2.579,0.987,3.961V486.68z"/>
	<path style="fill:#2F5E88;" d="M70.5,486.68H53.62v-85.9c0-1.382,0.34-2.741,0.987-3.961l34.899-65.659v-40.287h16.879v42.39
		c0,1.382-0.34,2.741-0.987,3.961L70.5,402.883V486.68z"/>
</g>
<path style="fill:#FF9269;" d="M125.029,0.001v141.785c39.148,0,70.892-31.744,70.892-70.892
	C195.922,31.733,164.178,0.001,125.029,0.001z"/>
<path style="fill:#78E3EC;" d="M123.78,175.532C55.419,175.532,0,230.951,0,299.312h247.56
	C247.56,230.951,192.142,175.532,123.78,175.532z"/>
<path style="fill:#FFB082;" d="M125.029,0.001c20.503,0,37.134,31.733,37.134,70.892c0,39.148-16.632,70.892-37.134,70.892
	c-39.16,0-70.892-31.744-70.892-70.892C54.137,31.733,85.87,0.001,125.029,0.001z"/>
<path style="fill:#25BBCC;" d="M388.22,175.532l90.022,123.78H512C512,230.952,456.58,175.532,388.22,175.532z"/>
<path style="fill:#FF9269;" d="M389.469,0.001v141.785c39.148,0,70.892-31.744,70.892-70.892
	C460.361,31.733,428.617,0.001,389.469,0.001z"/>
<path style="fill:#78E3EC;" d="M388.22,175.532c49.715,0,90.022,55.42,90.022,123.78H264.44
	C264.44,230.952,319.859,175.532,388.22,175.532z"/>
<path style="fill:#FFB082;" d="M389.469,0.001c20.503,0,37.134,31.733,37.134,70.892c0,39.148-16.632,70.892-37.134,70.892
	c-39.16,0-70.892-31.744-70.892-70.892C318.577,31.733,350.309,0.001,389.469,0.001z"/>
<path style="fill:#FF4719;" d="M256,175.532l90.022,123.78h33.758C379.78,230.952,324.36,175.532,256,175.532z"/>
<path style="fill:#FFDB8A;" d="M257.249,0.001v141.785c39.148,0,70.892-31.744,70.892-70.892
	C328.141,31.733,296.397,0.001,257.249,0.001z"/>
<path style="fill:#FF754F;" d="M256,175.532c49.715,0,90.022,55.42,90.022,123.78H132.22C132.22,230.952,187.64,175.532,256,175.532
	z"/>
<path style="fill:#FFEAB5;" d="M257.249,0.001c20.503,0,37.134,31.733,37.134,70.892c0,39.148-16.632,70.892-37.134,70.892
	c-39.16,0-70.892-31.744-70.892-70.892C186.357,31.733,218.09,0.001,257.249,0.001z"/>
<g>
	<path style="fill:#E02E00;" d="M257.242,99.771c-9.637,0-18.323-5.871-21.613-14.609c-1.642-4.362,0.564-9.229,4.925-10.871
		s9.231,0.563,10.872,4.925c0.827,2.199,3.165,3.676,5.815,3.676c2.651,0,4.988-1.477,5.815-3.675
		c1.642-4.363,6.51-6.568,10.87-4.926c4.363,1.641,6.569,6.509,4.928,10.871C275.569,93.899,266.883,99.771,257.242,99.771z"/>
	<path style="fill:#E02E00;" d="M389.462,99.771c-9.637,0-18.323-5.871-21.613-14.609c-1.642-4.362,0.564-9.229,4.925-10.871
		c4.363-1.642,9.229,0.563,10.872,4.925c0.827,2.199,3.165,3.676,5.815,3.676c2.651,0,4.988-1.477,5.815-3.675
		c1.641-4.363,6.509-6.568,10.87-4.926c4.363,1.641,6.569,6.509,4.928,10.871C407.788,93.899,399.102,99.771,389.462,99.771z"/>
</g>
<g>
	<circle style="fill:#78E3EC;" cx="63.094" cy="495.12" r="16.879"/>
	<circle style="fill:#78E3EC;" cx="130.611" cy="495.12" r="16.879"/>
	<circle style="fill:#78E3EC;" cx="291.885" cy="495.12" r="16.879"/>
</g>
<g>
	<path style="fill:#88ACB5;" d="M465.787,409.219H325.644c-4.662,0-8.44-3.779-8.44-8.44s3.778-8.44,8.44-8.44h140.143
		c4.662,0,8.44,3.779,8.44,8.44S470.448,409.219,465.787,409.219z"/>
	<path style="fill:#88ACB5;" d="M465.787,442.977H325.644c-4.662,0-8.44-3.779-8.44-8.44s3.778-8.44,8.44-8.44h140.143
		c4.662,0,8.44,3.779,8.44,8.44S470.448,442.977,465.787,442.977z"/>
	<path style="fill:#88ACB5;" d="M465.787,476.736h-70.072c-4.662,0-8.44-3.779-8.44-8.44s3.778-8.44,8.44-8.44h70.072
		c4.662,0,8.44,3.779,8.44,8.44S470.448,476.736,465.787,476.736z"/>
</g>
<path style="fill:#E02E00;" d="M122.538,99.771c-9.639,0-18.325-5.872-21.613-14.611c-1.642-4.363,0.565-9.23,4.928-10.871
	c4.359-1.64,9.23,0.564,10.87,4.926c0.827,2.199,3.164,3.675,5.815,3.675c2.65,0,4.988-1.477,5.815-3.676
	c1.643-4.364,6.509-6.566,10.872-4.925c4.362,1.642,6.567,6.51,4.925,10.871C140.861,93.9,132.175,99.771,122.538,99.771z"/>
<g>
</g>
<g>
</g>
<g>
</g>
<g>
</g>
<g>
</g>
<g>
</g>
<g>
</g>
<g>
</g>
<g>
</g>
<g>
</g>
<g>
</g>
<g>
</g>
<g>
</g>
<g>
</g>
<g>
</g>
</svg>
