<?xml version="1.0" encoding="iso-8859-1"?>
<!-- Generator: Adobe Illustrator 19.0.0, SVG Export Plug-In . SVG Version: 6.00 Build 0)  -->
<svg version="1.1" id="Layer_1" xmlns="http://www.w3.org/2000/svg" xmlns:xlink="http://www.w3.org/1999/xlink" x="0px" y="0px"
	 viewBox="0 0 512 512" style="enable-background:new 0 0 512 512;" xml:space="preserve">
<g>
	<path style="fill:#F1CB30;" d="M276.606,159.478c0-33.486-17.444-61.988-47.863-78.215c-26.985-15.94-57.793-21.869-113.592-21.869
		c-42.032,0-87.651,3.254-110.94,7.911C1.762,67.797,0,69.946,0,72.444v369.344c0,2.598,1.904,4.804,4.477,5.183
		c14.326,2.103,45.432,5.634,92.82,5.634c71.948,0,121.376-11.504,151.143-35.2c26.824-21.707,41.001-50.706,41.001-83.855
		c0-43.675-24.609-77.955-66.509-93.752C257.218,223.277,276.606,194.555,276.606,159.478z M94.724,282.44h23.773
		c26.589,0,71.198,6.206,71.198,47.762c0,42.531-42.162,48.881-67.293,48.881c-11.523,0-20.423,0-27.678-0.593
		C94.724,378.49,94.724,282.44,94.724,282.44z M117.383,211.146H94.724v-77.793c6.329-0.784,15.902-1.552,31.031-1.552
		c25.097,0,55.015,6.641,55.015,38.28C180.768,195.795,157.074,211.146,117.383,211.146z"/>
	<path style="fill:#F1CB30;" d="M417.32,203.562l-1.846-33.214c-0.153-2.776-2.449-4.947-5.229-4.947h-73.088
		c-1.433,0-2.803,0.587-3.79,1.624c-0.989,1.037-1.508,2.432-1.441,3.863c1.171,24.699,2.227,50.136,2.227,89.574v182.999
		c0,2.893,2.344,5.238,5.238,5.238h84.802c2.893,0,5.238-2.344,5.238-5.238V305.099c0-6.497,0.559-12.87,1.559-17.882
		c5.173-24.301,24.946-38.81,52.901-38.81c8.925,0,15.816,1.031,21.934,2.145c1.534,0.279,3.101-0.136,4.295-1.131
		c1.192-0.995,1.881-2.468,1.881-4.023v-79.782c0-2.531-1.81-4.701-4.301-5.152c-6.598-1.201-10.93-1.201-18.791-1.201
		C464.16,159.265,434.349,173.099,417.32,203.562z"/>
</g>
<g>
</g>
<g>
</g>
<g>
</g>
<g>
</g>
<g>
</g>
<g>
</g>
<g>
</g>
<g>
</g>
<g>
</g>
<g>
</g>
<g>
</g>
<g>
</g>
<g>
</g>
<g>
</g>
<g>
</g>
</svg>
