<?xml version="1.0" encoding="iso-8859-1"?>
<!-- Generator: Adobe Illustrator 19.0.0, SVG Export Plug-In . SVG Version: 6.00 Build 0)  -->
<svg version="1.1" id="Layer_1" xmlns="http://www.w3.org/2000/svg" xmlns:xlink="http://www.w3.org/1999/xlink" x="0px" y="0px"
	 viewBox="0 0 508 508" style="enable-background:new 0 0 508 508;" xml:space="preserve">
<path style="fill:#FFFFFF;" d="M465.7,352.9H42.3c-7.8,0-14.1,6.3-14.1,14.1v98.7c0,7.8,6.3,14.1,14.1,14.1h423.3
	c7.8,0,14.1-6.3,14.1-14.1V367C479.8,359.2,473.4,352.9,465.7,352.9z"/>
<path style="fill:#FFC10D;" d="M465.7,352.9H42.3c-7.8,0-14.1,6.3-14.1,14.1v8.7h82.7c7.8,0,14.1,6.3,14.1,14.1
	c0,7.8-6.3,14.1-14.1,14.1H28.2v24.4h40.3c7.8,0,14.1,6.3,14.1,14.1c0,7.8-6.3,14.1-14.1,14.1H28.2v9.1c0,7.8,6.3,14.1,14.1,14.1
	h423.3c7.8,0,14.1-6.3,14.1-14.1V367C479.8,359.2,473.4,352.9,465.7,352.9z"/>
<rect x="86.8" y="28.2" style="fill:#56ACE0;" width="133.1" height="124"/>
<path style="fill:#FFFFFF;" d="M42.3,324.7h423.3c7.8,0,14.1-6.3,14.1-14.1V113.7c0-7.8-6.3-14.1-14.1-14.1H248.1v52.6h1.5
	c7.8,0,14.1,6.3,14.1,14.1s-6.3,14.1-14.1,14.1H57.1c-7.8,0-14.1-6.3-14.1-14.1s6.3-14.1,14.1-14.1h1.5V99.6H42.3
	c-7.8,0-14.1,6.3-14.1,14.1v196.8C28.2,318.3,34.6,324.7,42.3,324.7z"/>
<path style="fill:#FFC10D;" d="M430.1,182.6H298c-1.1,0-2-0.9-2-2v-46.2c0-1.1,0.9-2,2-2h132c1.1,0,2,0.9,2,2v46.2
	C432.1,181.7,431.2,182.6,430.1,182.6z"/>
<g>
	<path style="fill:#194F82;" d="M508,113.7c0-23.3-19-42.3-42.3-42.3H248.1V28.2c0-15.6-12.7-28.2-28.2-28.2H86.8
		C71.3,0,58.6,12.7,58.6,28.2v43.2H42.3C19,71.4,0,90.4,0,113.7v196.8c0,10.8,4.1,20.7,10.9,28.2C4.1,346.3,0,356.2,0,367v98.7
		C0,489,19,508,42.3,508h423.3c23.3,0,42.3-19,42.3-42.3V367c0-10.8-4.1-20.7-10.9-28.2c6.7-7.5,10.9-17.4,10.9-28.2V113.7H508z
		 M86.8,28.2h133.1v124H86.8V28.2z M479.8,465.7c0,7.8-6.3,14.1-14.1,14.1H42.3c-7.8,0-14.1-6.3-14.1-14.1V367
		c0-7.8,6.3-14.1,14.1-14.1h423.3c7.8,0,14.1,6.3,14.1,14.1v98.7H479.8z M479.8,310.6c0,7.8-6.3,14.1-14.1,14.1H42.3
		c-7.8,0-14.1-6.3-14.1-14.1V113.7c0-7.8,6.3-14.1,14.1-14.1h16.3v52.6h-1.5c-7.8,0-14.1,6.3-14.1,14.1s6.3,14.1,14.1,14.1h192.6
		c7.8,0,14.1-6.3,14.1-14.1s-6.3-14.1-14.1-14.1h-1.5V99.6h217.5c7.8,0,14.1,6.3,14.1,14.1L479.8,310.6L479.8,310.6z"/>
	<path style="fill:#194F82;" d="M184.9,51.9h-63c-7.8,0-14.1,6.3-14.1,14.1s6.3,14.1,14.1,14.1h63c7.8,0,14.1-6.3,14.1-14.1
		S192.6,51.9,184.9,51.9z"/>
	<path style="fill:#194F82;" d="M184.9,100.3h-63c-7.8,0-14.1,6.3-14.1,14.1s6.3,14.1,14.1,14.1h63c7.8,0,14.1-6.3,14.1-14.1
		S192.6,100.3,184.9,100.3z"/>
	<path style="fill:#194F82;" d="M96.8,223.2H75.9c-7.8,0-14.1,6.3-14.1,14.1s6.3,14.1,14.1,14.1h20.9c7.8,0,14.1-6.3,14.1-14.1
		S104.6,223.2,96.8,223.2z"/>
	<path style="fill:#194F82;" d="M180.6,223.2h-20.9c-7.8,0-14.1,6.3-14.1,14.1s6.3,14.1,14.1,14.1h20.9c7.8,0,14.1-6.3,14.1-14.1
		C194.7,229.5,188.4,223.2,180.6,223.2z"/>
	<path style="fill:#194F82;" d="M264.4,223.2h-20.9c-7.8,0-14.1,6.3-14.1,14.1s6.3,14.1,14.1,14.1h20.9c7.8,0,14.1-6.3,14.1-14.1
		S272.2,223.2,264.4,223.2z"/>
	<path style="fill:#194F82;" d="M348.3,223.2h-20.9c-7.8,0-14.1,6.3-14.1,14.1s6.3,14.1,14.1,14.1h20.9c7.8,0,14.1-6.3,14.1-14.1
		S356.1,223.2,348.3,223.2z"/>
	<path style="fill:#194F82;" d="M432.1,223.2h-20.9c-7.8,0-14.1,6.3-14.1,14.1s6.3,14.1,14.1,14.1h20.9c7.8,0,14.1-6.3,14.1-14.1
		S439.9,223.2,432.1,223.2z"/>
	<path style="fill:#194F82;" d="M96.8,275.2H75.9c-7.8,0-14.1,6.3-14.1,14.1s6.3,14.1,14.1,14.1h20.9c7.8,0,14.1-6.3,14.1-14.1
		S104.6,275.2,96.8,275.2z"/>
	<path style="fill:#194F82;" d="M180.6,275.2h-20.9c-7.8,0-14.1,6.3-14.1,14.1s6.3,14.1,14.1,14.1h20.9c7.8,0,14.1-6.3,14.1-14.1
		S188.4,275.2,180.6,275.2z"/>
	<path style="fill:#194F82;" d="M264.4,275.2h-20.9c-7.8,0-14.1,6.3-14.1,14.1s6.3,14.1,14.1,14.1h20.9c7.8,0,14.1-6.3,14.1-14.1
		S272.2,275.2,264.4,275.2z"/>
	<path style="fill:#194F82;" d="M348.3,275.2h-20.9c-7.8,0-14.1,6.3-14.1,14.1s6.3,14.1,14.1,14.1h20.9c7.8,0,14.1-6.3,14.1-14.1
		S356.1,275.2,348.3,275.2z"/>
	<path style="fill:#194F82;" d="M432.1,275.2h-20.9c-7.8,0-14.1,6.3-14.1,14.1s6.3,14.1,14.1,14.1h20.9c7.8,0,14.1-6.3,14.1-14.1
		S439.9,275.2,432.1,275.2z"/>
	<path style="fill:#194F82;" d="M275.9,409.3h-43.8c-7.8,0-14.1,6.3-14.1,14.1c0,7.8,6.3,14.1,14.1,14.1h43.8
		c7.8,0,14.1-6.3,14.1-14.1C290,415.6,283.7,409.3,275.9,409.3z"/>
</g>
<g>
</g>
<g>
</g>
<g>
</g>
<g>
</g>
<g>
</g>
<g>
</g>
<g>
</g>
<g>
</g>
<g>
</g>
<g>
</g>
<g>
</g>
<g>
</g>
<g>
</g>
<g>
</g>
<g>
</g>
</svg>
