<?xml version="1.0" encoding="iso-8859-1"?>
<!-- Generator: Adobe Illustrator 19.0.0, SVG Export Plug-In . SVG Version: 6.00 Build 0)  -->
<svg version="1.1" id="Layer_1" xmlns="http://www.w3.org/2000/svg" xmlns:xlink="http://www.w3.org/1999/xlink" x="0px" y="0px"
	 viewBox="0 0 512 512" style="enable-background:new 0 0 512 512;" xml:space="preserve">
<path d="M111.019,0c-0.085,0-0.085,0-0.085,0C95.829,0,81.408,3.072,68.267,8.533h-0.085C28.16,25.344,0,64.853,0,110.933
	c0,30.464,12.373,58.197,32.341,78.251c10.24,10.24,22.357,18.432,35.84,24.149h0.085c13.141,5.461,27.563,8.533,42.667,8.533
	c61.184,0,110.933-49.749,110.933-110.933S172.203,0.085,111.019,0z M111.019,204.8c-0.085,0-0.085,0-0.085,0
	c-14.08,0-27.392-3.072-39.339-8.619c-32.171-14.933-54.528-47.531-54.528-85.248c0-50.688,40.277-92.075,90.539-93.781
	c1.109-0.085,2.219-0.085,3.328-0.085c12.715,0,24.832,2.56,35.925,7.083c33.963,14.165,57.941,47.701,57.941,86.784
	C204.8,162.731,162.816,204.715,111.019,204.8z"/>
<path style="fill:#7E939E;" d="M204.8,110.933c0,51.797-41.984,93.781-93.781,93.867c40.021-16.811,68.181-56.32,68.181-102.4
	c0-30.464-12.373-58.197-32.341-78.251C180.821,38.315,204.8,71.851,204.8,110.933z"/>
<path style="fill:#AFAFAF;" d="M179.2,102.4c0,46.08-28.16,85.589-68.181,102.4c-0.085,0-0.085,0-0.085,0
	c-14.08,0-27.392-3.072-39.339-8.619c-32.171-14.933-54.528-47.531-54.528-85.248c0-50.688,40.277-92.075,90.539-93.781
	c1.109-0.085,2.219-0.085,3.328-0.085c12.715,0,24.832,2.56,35.925,7.083C166.827,44.203,179.2,71.936,179.2,102.4z"/>
<path d="M405.589,290.389c-18.432-35.584-55.552-59.989-98.304-59.989c-0.085,0-0.085,0-0.085,0
	c-15.104,0-29.525,3.072-42.667,8.533h-0.085c-40.021,16.811-68.181,56.32-68.181,102.4c0,30.635,12.459,58.283,32.597,78.336
	c8.533,8.619,18.603,15.872,29.696,21.163c2.048,1.109,4.181,2.048,6.315,2.901c6.059,2.56,12.459,4.523,19.029,5.973
	c6.059,1.28,12.288,2.048,18.688,2.304c5.291,10.325,12.117,19.541,20.139,27.392c10.325,10.325,22.528,18.517,35.925,24.064
	c13.227,5.547,27.563,8.533,42.411,8.533C462.251,512,512,462.251,512,401.067C512,341.419,464.64,292.779,405.589,290.389z
	 M307.2,435.2c-12.629,0-24.661-2.475-35.669-6.997c-1.195-0.512-2.475-1.024-3.669-1.621c-6.485-2.987-12.459-6.656-18.005-11.008
	c-22.187-17.152-36.523-44.032-36.523-74.24c0-50.688,40.277-92.075,90.539-93.781c1.109-0.085,2.219-0.085,3.328-0.085
	c12.715,0,24.832,2.56,35.925,7.083c15.189,6.315,28.416,16.555,38.315,29.44c5.12,6.571,9.387,13.824,12.544,21.675
	c4.608,11.008,7.083,23.04,7.083,35.669c0,51.797-41.984,93.781-93.781,93.867C307.2,435.2,307.2,435.2,307.2,435.2z
	 M401.152,494.933c-0.085,0-0.085,0-0.085,0c-13.739,0-26.965-2.987-38.997-8.619c-16.384-7.424-30.549-19.541-40.363-35.072
	c54.357-7.168,96.427-53.675,96.427-109.909c0-8.021-0.853-15.787-2.475-23.211c-0.683-3.413-1.621-6.827-2.645-10.069
	c8.448,1.109,16.64,3.243,24.235,6.485c33.877,14.165,57.685,47.616,57.685,86.528C494.933,452.864,452.949,494.848,401.152,494.933
	z"/>
<path style="fill:#6F6513;" d="M494.933,401.067c0,51.797-41.984,93.781-93.781,93.867c40.021-16.811,68.181-56.32,68.181-102.4
	c0-30.379-12.288-57.941-32.085-77.995C471.125,328.704,494.933,362.155,494.933,401.067z"/>
<path style="fill:#A0A821;" d="M469.333,392.533c0,46.08-28.16,85.589-68.181,102.4c-0.085,0-0.085,0-0.085,0
	c-13.739,0-26.965-2.987-38.997-8.619c-16.384-7.424-30.549-19.541-40.363-35.072c54.357-7.168,96.427-53.675,96.427-109.909
	c0-8.021-0.853-15.787-2.475-23.211c-0.683-3.413-1.621-6.827-2.645-10.069c8.448,1.109,16.64,3.243,24.235,6.485
	C457.045,334.592,469.333,362.155,469.333,392.533z"/>
<path style="fill:#6F6513;" d="M401.067,341.333c0,51.797-41.984,93.781-93.781,93.867c40.021-16.811,68.181-56.32,68.181-102.4
	c0-30.464-12.373-58.197-32.341-78.251C377.088,268.715,401.067,302.251,401.067,341.333z"/>
<path style="fill:#A0A821;" d="M375.467,332.8c0,46.08-28.16,85.589-68.181,102.4c-0.085,0-0.085,0-0.085,0
	c-14.08,0-27.392-3.072-39.339-8.619c-32.171-14.933-54.528-47.531-54.528-85.248c0-50.688,40.277-92.075,90.539-93.781
	c1.109-0.085,2.219-0.085,3.328-0.085c12.715,0,24.832,2.56,35.925,7.083C363.093,274.603,375.467,302.336,375.467,332.8z"/>
<path d="M468.565,150.016c-1.451-3.072-4.437-4.949-7.765-4.949h-34.133v-51.2c0-2.304-0.939-4.437-2.475-6.059l-34.133-34.133
	c-1.621-1.536-3.755-2.475-6.059-2.475H256c-4.693,0-8.533,3.84-8.533,8.533s3.84,8.533,8.533,8.533h124.501L409.6,97.365v47.701
	h-34.133c-3.328,0-6.315,1.877-7.765,4.949c-1.365,2.987-0.939,6.485,1.195,9.045l42.667,51.2c1.621,1.963,4.011,3.072,6.571,3.072
	s4.949-1.109,6.571-3.072l42.667-51.2C469.504,156.501,469.931,153.003,468.565,150.016z M418.133,191.488l-24.491-29.355h48.981
	L418.133,191.488z"/>
<polygon style="fill:#F9F9F9;" points="442.624,162.133 418.133,191.488 393.643,162.133 "/>
<g>
</g>
<g>
</g>
<g>
</g>
<g>
</g>
<g>
</g>
<g>
</g>
<g>
</g>
<g>
</g>
<g>
</g>
<g>
</g>
<g>
</g>
<g>
</g>
<g>
</g>
<g>
</g>
<g>
</g>
</svg>
