<?xml version="1.0" encoding="iso-8859-1"?>
<!-- Generator: Adobe Illustrator 19.0.0, SVG Export Plug-In . SVG Version: 6.00 Build 0)  -->
<svg version="1.1" id="Layer_1" xmlns="http://www.w3.org/2000/svg" xmlns:xlink="http://www.w3.org/1999/xlink" x="0px" y="0px"
	 viewBox="0 0 512 512" style="enable-background:new 0 0 512 512;" xml:space="preserve">
<polygon style="fill:#FEE187;" points="272.322,330.472 331.886,410.257 88.811,410.257 95.402,238.025 331.886,238.025 "/>
<path style="fill:#FFC61B;" d="M426.485,107.309c-0.307-7.99-6.873-14.311-14.869-14.311h-76.01V14.88
	c0-8.218-6.663-14.88-14.88-14.88H191.272c-8.218,0-14.88,6.662-14.88,14.88v78.114h-76.006c-7.996,0-14.563,6.319-14.869,14.31
	L73.941,409.689c-0.1,2.592,0.473,5.052,1.558,7.218c0.024,0.048,0.054,0.092,0.077,0.138c0.196,0.384,0.405,0.759,0.634,1.122
	c0.086,0.138,0.186,0.266,0.277,0.402c0.18,0.266,0.36,0.534,0.557,0.789c0.122,0.158,0.257,0.307,0.387,0.46
	c0.186,0.222,0.371,0.443,0.568,0.653c0.031,0.034,0.058,0.071,0.091,0.104c0.115,0.119,0.243,0.223,0.36,0.339
	c0.202,0.196,0.403,0.393,0.616,0.577c0.158,0.137,0.321,0.262,0.484,0.391c0.223,0.179,0.448,0.356,0.681,0.521
	c0.161,0.113,0.327,0.219,0.491,0.326c0.25,0.162,0.5,0.321,0.76,0.469c0.161,0.091,0.326,0.174,0.491,0.26
	c0.272,0.141,0.548,0.278,0.83,0.403c0.167,0.074,0.336,0.14,0.506,0.208c0.284,0.113,0.57,0.222,0.863,0.317
	c0.186,0.061,0.373,0.115,0.562,0.168c0.278,0.079,0.558,0.155,0.844,0.217c0.217,0.048,0.436,0.088,0.656,0.126
	c0.262,0.046,0.522,0.089,0.789,0.121c0.248,0.03,0.498,0.049,0.748,0.067c0.158,0.01,0.311,0.036,0.47,0.042
	c0.189,0.007,0.375,0.01,0.562,0.01c0.001,0,0.004,0,0.006,0h243.075c0.01,0,0.022,0,0.03,0c8.218,0,14.88-6.662,14.88-14.88
	c0-3.643-1.308-6.98-3.482-9.566l-52.888-70.842l53.97-83.765c2.949-4.578,3.162-10.401,0.555-15.183
	c-2.607-4.781-7.617-7.755-13.063-7.755H110.864l3.843-100.393h61.685v38.882c0,8.218,6.662,14.88,14.88,14.88
	c8.218,0,14.88-6.662,14.88-14.88V29.759h99.694v63.239h-49.847c-8.218,0-14.88,6.662-14.88,14.88s6.662,14.88,14.88,14.88h49.847
	v38.878c0,8.218,6.663,14.88,14.88,14.88c8.217,0,14.88-6.662,14.88-14.88v-38.878h61.688l13.752,359.483H85.494
	c-8.218,0-14.88,6.662-14.88,14.88c0,8.218,6.662,14.88,14.88,14.88h341.011c4.046,0,7.915-1.647,10.721-4.561
	c2.805-2.913,4.303-6.845,4.148-10.887L426.485,107.309z M304.598,252.904l-44.785,69.509c-3.364,5.221-3.131,11.983,0.585,16.96
	l41.81,56.003H104.271l5.455-142.473h194.872V252.904z"/>
<g>
</g>
<g>
</g>
<g>
</g>
<g>
</g>
<g>
</g>
<g>
</g>
<g>
</g>
<g>
</g>
<g>
</g>
<g>
</g>
<g>
</g>
<g>
</g>
<g>
</g>
<g>
</g>
<g>
</g>
</svg>
